# xmcd CD database file
#
# Track frame offsets:
#	150
#	38141
#	67632
#	133445
#	140708
#	154404
#	189212
#
# Disc length: 2638 seconds
#
# Revision: 1
# Processed by: cddbd v1.5.2PL0 Copyright (c) Steve Scherf et al.
# Submitted via: CDex 1.70beta2
#
DISCID=610a4c07
DTITLE=Mikhail 'Misha' Alperin - Prayer
DYEAR=1995
DGENRE=Jazz
TTITLE0=Prayer - Part 1
TTITLE1=Prayer - Part 2
TTITLE2=Talk For Trio
TTITLE3=Song From Mountains
TTITLE4=Singing Wood
TTITLE5=Troika
TTITLE6=Talk For Three
EXTD=YEAR: 1995
EXTT0=
EXTT1=
EXTT2=
EXTT3=
EXTT4=
EXTT5=
EXTT6=
PLAYORDER=
